%TF.GenerationSoftware,KiCad,Pcbnew,(5.1.6)-1*%
%TF.CreationDate,2020-07-06T16:42:28-04:00*%
%TF.ProjectId,HarwinHVv2board,48617277-696e-4485-9676-32626f617264,rev?*%
%TF.SameCoordinates,Original*%
%TF.FileFunction,Profile,NP*%
%FSLAX46Y46*%
G04 Gerber Fmt 4.6, Leading zero omitted, Abs format (unit mm)*
G04 Created by KiCad (PCBNEW (5.1.6)-1) date 2020-07-06 16:42:28*
%MOMM*%
%LPD*%
G01*
G04 APERTURE LIST*
%TA.AperFunction,Profile*%
%ADD10C,0.050000*%
%TD*%
G04 APERTURE END LIST*
D10*
X162000000Y-103000000D02*
X162000000Y-115500000D01*
X162000000Y-102500000D02*
X162000000Y-90500000D01*
X159800000Y-103000000D02*
X159800000Y-95000000D01*
X162000000Y-103000000D02*
X159800000Y-103000000D01*
X160300000Y-95000000D02*
X159800000Y-95000000D01*
X160300000Y-102500000D02*
X160300000Y-95000000D01*
X162000000Y-102500000D02*
X160300000Y-102500000D01*
X150500000Y-116000000D02*
X161500000Y-116000000D01*
X150000000Y-90500000D02*
X150000000Y-115500000D01*
X161500000Y-90000000D02*
X150500000Y-90000000D01*
X158500000Y-109500000D02*
X158500000Y-112500000D01*
X154000000Y-109000000D02*
X158000000Y-109000000D01*
X153500000Y-112500000D02*
X153500000Y-109500000D01*
X158000000Y-113000000D02*
X154000000Y-113000000D01*
X158000000Y-113000000D02*
G75*
G03*
X158500000Y-112500000I0J500000D01*
G01*
X158500000Y-109500000D02*
G75*
G03*
X158000000Y-109000000I-500000J0D01*
G01*
X154000000Y-109000000D02*
G75*
G03*
X153500000Y-109500000I0J-500000D01*
G01*
X153500000Y-112500000D02*
G75*
G03*
X154000000Y-113000000I500000J0D01*
G01*
X150500000Y-90000000D02*
G75*
G03*
X150000000Y-90500000I0J-500000D01*
G01*
X162000000Y-90500000D02*
G75*
G03*
X161500000Y-90000000I-500000J0D01*
G01*
X161500000Y-116000000D02*
G75*
G03*
X162000000Y-115500000I0J500000D01*
G01*
X150500000Y-116000000D02*
G75*
G02*
X150000000Y-115500000I0J500000D01*
G01*
M02*
