%TF.GenerationSoftware,KiCad,Pcbnew,(5.1.6)-1*%
%TF.CreationDate,2020-07-06T16:42:28-04:00*%
%TF.ProjectId,HarwinHVv2board,48617277-696e-4485-9676-32626f617264,rev?*%
%TF.SameCoordinates,Original*%
%TF.FileFunction,Copper,L1,Top*%
%TF.FilePolarity,Positive*%
%FSLAX46Y46*%
G04 Gerber Fmt 4.6, Leading zero omitted, Abs format (unit mm)*
G04 Created by KiCad (PCBNEW (5.1.6)-1) date 2020-07-06 16:42:28*
%MOMM*%
%LPD*%
G01*
G04 APERTURE LIST*
%TA.AperFunction,Conductor*%
%ADD10C,0.250000*%
%TD*%
G04 APERTURE END LIST*
%TO.P,J4,1*%
%TO.N,Net-(J1-Pad1)*%
%TA.AperFunction,ComponentPad*%
G36*
G01*
X153125000Y-100000000D02*
X153125000Y-99000000D01*
G75*
G02*
X153625000Y-98500000I500000J0D01*
G01*
X158375000Y-98500000D01*
G75*
G02*
X158875000Y-99000000I0J-500000D01*
G01*
X158875000Y-100000000D01*
G75*
G02*
X158375000Y-100500000I-500000J0D01*
G01*
X153625000Y-100500000D01*
G75*
G02*
X153125000Y-100000000I0J500000D01*
G01*
G37*
%TD.AperFunction*%
%TD*%
%TO.P,J5,1*%
%TO.N,Net-(J2-Pad1)*%
%TA.AperFunction,ComponentPad*%
G36*
G01*
X153125000Y-107000000D02*
X153125000Y-106000000D01*
G75*
G02*
X153625000Y-105500000I500000J0D01*
G01*
X158375000Y-105500000D01*
G75*
G02*
X158875000Y-106000000I0J-500000D01*
G01*
X158875000Y-107000000D01*
G75*
G02*
X158375000Y-107500000I-500000J0D01*
G01*
X153625000Y-107500000D01*
G75*
G02*
X153125000Y-107000000I0J500000D01*
G01*
G37*
%TD.AperFunction*%
%TD*%
%TO.P,J3,1*%
%TO.N,Net-(J3-Pad1)*%
%TA.AperFunction,ComponentPad*%
G36*
G01*
X153125000Y-93000000D02*
X153125000Y-92000000D01*
G75*
G02*
X153625000Y-91500000I500000J0D01*
G01*
X158375000Y-91500000D01*
G75*
G02*
X158875000Y-92000000I0J-500000D01*
G01*
X158875000Y-93000000D01*
G75*
G02*
X158375000Y-93500000I-500000J0D01*
G01*
X153625000Y-93500000D01*
G75*
G02*
X153125000Y-93000000I0J500000D01*
G01*
G37*
%TD.AperFunction*%
%TD*%
%TO.P,J7,1*%
%TO.N,Net-(J2-Pad1)*%
%TA.AperFunction,SMDPad,CuDef*%
G36*
G01*
X160500000Y-107750000D02*
X160500000Y-105250000D01*
G75*
G02*
X160750000Y-105000000I250000J0D01*
G01*
X161250000Y-105000000D01*
G75*
G02*
X161500000Y-105250000I0J-250000D01*
G01*
X161500000Y-107750000D01*
G75*
G02*
X161250000Y-108000000I-250000J0D01*
G01*
X160750000Y-108000000D01*
G75*
G02*
X160500000Y-107750000I0J250000D01*
G01*
G37*
%TD.AperFunction*%
%TD*%
%TO.P,J6,1*%
%TO.N,Net-(J3-Pad1)*%
%TA.AperFunction,SMDPad,CuDef*%
G36*
G01*
X160500000Y-101750000D02*
X160500000Y-99250000D01*
G75*
G02*
X160750000Y-99000000I250000J0D01*
G01*
X161250000Y-99000000D01*
G75*
G02*
X161500000Y-99250000I0J-250000D01*
G01*
X161500000Y-101750000D01*
G75*
G02*
X161250000Y-102000000I-250000J0D01*
G01*
X160750000Y-102000000D01*
G75*
G02*
X160500000Y-101750000I0J250000D01*
G01*
G37*
%TD.AperFunction*%
%TD*%
%TO.P,J2,1*%
%TO.N,Net-(J2-Pad1)*%
%TA.AperFunction,SMDPad,CuDef*%
G36*
G01*
X150500000Y-107750000D02*
X150500000Y-105250000D01*
G75*
G02*
X150750000Y-105000000I250000J0D01*
G01*
X151250000Y-105000000D01*
G75*
G02*
X151500000Y-105250000I0J-250000D01*
G01*
X151500000Y-107750000D01*
G75*
G02*
X151250000Y-108000000I-250000J0D01*
G01*
X150750000Y-108000000D01*
G75*
G02*
X150500000Y-107750000I0J250000D01*
G01*
G37*
%TD.AperFunction*%
%TD*%
%TO.P,J1,1*%
%TO.N,Net-(J1-Pad1)*%
%TA.AperFunction,SMDPad,CuDef*%
G36*
G01*
X150500000Y-101750000D02*
X150500000Y-99250000D01*
G75*
G02*
X150750000Y-99000000I250000J0D01*
G01*
X151250000Y-99000000D01*
G75*
G02*
X151500000Y-99250000I0J-250000D01*
G01*
X151500000Y-101750000D01*
G75*
G02*
X151250000Y-102000000I-250000J0D01*
G01*
X150750000Y-102000000D01*
G75*
G02*
X150500000Y-101750000I0J250000D01*
G01*
G37*
%TD.AperFunction*%
%TD*%
D10*
%TO.N,Net-(J1-Pad1)*%
X156000000Y-99500000D02*
X151500000Y-99500000D01*
X151000000Y-100500000D02*
X151000000Y-99500000D01*
X151000000Y-99500000D02*
X151500000Y-99500000D01*
%TO.N,Net-(J2-Pad1)*%
X156000000Y-106500000D02*
X151000000Y-106500000D01*
X156000000Y-106500000D02*
X161000000Y-106500000D01*
%TO.N,Net-(J3-Pad1)*%
X161000000Y-93500000D02*
X161000000Y-100500000D01*
X160000000Y-92500000D02*
X161000000Y-93500000D01*
X156000000Y-92500000D02*
X160000000Y-92500000D01*
%TD*%
M02*
